<svg width="17" height="15" viewBox="0 0 17 15" fill="none" xmlns="http://www.w3.org/2000/svg">
<path d="M8.37061 4.80764L10.8041 7.24118L10.8157 7.11371C10.8157 5.83512 9.77666 4.79605 8.49808 4.79605L8.37061 4.80764Z" fill="#B0BFC8"/>
<path d="M8.49807 3.25098C10.6303 3.25098 12.3608 4.98151 12.3608 7.11375C12.3608 7.61204 12.2604 8.08716 12.0866 8.52364L14.3463 10.7834C15.5128 9.80994 16.4322 8.5507 17 7.11375C15.6597 3.72226 12.3647 1.31961 8.4981 1.31961C7.41652 1.31961 6.38132 1.51274 5.41949 1.86038L7.08821 3.52522C7.52465 3.35527 7.99977 3.25098 8.49807 3.25098Z" fill="#B0BFC8"/>
<path d="M0.77254 1.14574L2.53396 2.90716L2.88548 3.25868C1.61077 4.25527 0.60259 5.58021 0 7.1137C1.33653 10.5052 4.63531 12.9078 8.49808 12.9078C9.69555 12.9078 10.8389 12.6761 11.8857 12.255L12.2141 12.5834L14.4661 14.8392L15.4511 13.8581L1.75754 0.160736L0.77254 1.14574ZM5.04477 5.4141L6.23837 6.60769C6.2036 6.7738 6.18043 6.93988 6.18043 7.1137C6.18043 8.39229 7.2195 9.43136 8.49808 9.43136C8.6719 9.43136 8.83801 9.40818 9.00025 9.37342L10.1938 10.567C9.68008 10.8219 9.10842 10.9765 8.49808 10.9765C6.36584 10.9765 4.63531 9.24594 4.63531 7.1137C4.63531 6.5034 4.78983 5.9317 5.04477 5.4141Z" fill="#B0BFC8"/>
</svg>
