<svg width="131" height="65" viewBox="0 0 131 65" fill="none" xmlns="http://www.w3.org/2000/svg">
<path d="M100.518 45.1466L100.237 42.2432L101.529 35.253H99.5413H96.9241C97.9511 31.7745 98.7462 28.9585 98.7462 28.9585L99.1769 27.5671H90.729L90.3314 28.9585L88.5093 35.253H81.3204C80.1277 35.253 79.5314 35.253 79.5314 35.253C72.1437 35.253 68.0026 37.3733 66.2799 41.3488C65.286 37.7046 62.0062 35.253 56.9375 35.253C52.5645 35.253 48.6884 36.8764 45.8062 39.4604C44.3154 36.8764 41.3669 35.253 37.2589 35.253C32.5546 35.253 28.4798 37.1414 25.4982 40.0236C24.1399 37.1414 21.0589 35.253 16.6528 35.253C15.1288 35.253 13.7043 35.4518 12.346 35.8162L13.0086 33.5303C13.0086 33.4972 13.0417 33.4641 13.0417 33.4309L14.7313 27.5671H6.31654L0.949652 46.0531C0.817136 46.4175 0.684618 46.7819 0.585232 47.1794C0.353329 48.0408 0.187687 48.869 0.121429 49.6641C-0.574278 54.8322 1.67849 58.7083 7.93985 58.9733C8.50304 59.0396 9.09936 59.0727 9.76194 59.0727C14.2012 59.0727 18.3423 57.1844 21.3902 54.3022C22.6822 57.1844 25.6969 59.0727 30.3681 59.0727C34.5092 59.0727 38.4184 57.4494 41.3669 54.8654C42.7915 57.4494 45.7068 59.0727 50.0467 59.0727C59.4553 59.0727 66.4786 59.0727 71.1167 59.0727C77.6431 59.0727 81.3204 57.7807 83.2419 54.9979C83.2419 57.6813 84.7658 59.0727 88.6087 59.0727C91.7228 59.0727 95.8971 58.377 101.628 56.9856L101.098 51.1549L100.518 45.1466ZM17.4478 47.1463C16.6528 49.8629 14.135 52.0494 11.8159 52.0494C9.49691 52.0494 8.23801 49.8629 9.0331 47.1463C9.8282 44.4297 12.346 42.2432 14.665 42.2432C16.984 42.2432 18.2429 44.4297 17.4478 47.1463ZM38.0209 47.1463C37.2258 49.8629 34.708 52.0494 32.389 52.0494C30.07 52.0494 28.8111 49.8629 29.6062 47.1463C30.4012 44.4297 32.919 42.2432 35.2381 42.2432C37.5571 42.2432 38.816 44.4297 38.0209 47.1463ZM49.3179 47.1463C50.1129 44.4297 52.6307 42.2432 54.9498 42.2432C57.2688 42.2432 58.5277 44.4297 57.7326 47.1463C56.9706 49.8298 54.486 51.9831 52.2001 52.0494C52.1338 52.0494 52.0676 52.0494 52.0013 52.0494C49.7485 51.9831 48.5559 49.8298 49.3179 47.1463ZM76.3842 51.188C75.9535 52.1819 72.6406 52.0163 71.8124 52.0494C71.8124 52.0494 69.6259 52.0494 63.6627 52.0494C64.7559 50.5586 65.6173 48.9021 66.1142 47.1463C66.1805 46.9807 66.2136 46.7819 66.2467 46.6163C67.1412 47.8751 68.9964 49.0015 72.6075 49.7304C76.0529 50.393 76.6823 50.1942 76.3842 51.188ZM84.6995 48.5046C83.9707 45.7218 80.8897 44.5954 76.5498 44.0653C74.7277 43.8334 73.7007 43.7672 73.9326 42.9721C74.0983 42.3758 75.0259 42.2432 76.9805 42.2432C78.2063 42.2432 79.6639 42.2432 81.3535 42.2432H86.5216L84.6995 48.5046ZM93.0811 48.5377C93.0811 48.4715 93.9094 45.6886 94.9032 42.2432H100.237L101.098 51.1549C92.3192 53.0433 92.1204 52.5463 93.0811 48.5377Z" fill="#F0EFFF"/>
<path d="M20.6058 2.09397C11.7157 2.09397 7.28435 8.65452 7.28448 17.6071C7.28448 26.6633 11.6487 33.1618 20.6058 33.1618C29.4979 33.1618 33.9701 26.6633 33.9701 17.6071C33.9699 8.50145 29.6836 2.09397 20.6058 2.09397ZM20.6058 28.0339C15.514 28.0339 14.6287 22.7068 14.6287 17.6071C14.6287 12.4694 15.4705 7.22291 20.6058 7.22291C25.7583 7.22291 26.6263 12.4307 26.6263 17.6071C26.6263 22.8152 25.7963 28.0339 20.6058 28.0339ZM50.9846 9.01748C48.0933 9.01748 45.9273 10.2462 44.0678 12.4364L43.9067 11.5128C43.7283 10.4901 42.841 9.74341 41.8036 9.74341H37.7059L37.7061 31.3673C37.7061 31.9572 38.1839 32.4356 38.7734 32.4356H44.452V17.5799C44.452 17.1523 44.5718 16.725 44.8198 16.3766C45.9602 14.7745 47.1473 13.9742 48.3803 13.9742C50.1465 13.9742 50.5151 15.255 50.5151 17.0081V31.3673C50.5151 31.9572 50.9931 32.4354 51.5825 32.4354H57.2611L57.2609 15.8554C57.2609 11.368 54.7848 9.01748 50.9846 9.01748ZM69.9654 27.7828C69.8344 27.8048 69.7064 27.8199 69.6005 27.8199C68.8317 27.8199 68.4476 27.3503 68.4476 26.4106V0L62.6542 0.624481C62.1121 0.682856 61.7011 1.14077 61.7011 1.68664V26.6659C61.7011 30.956 64.1243 33.1618 67.9353 33.1618C69.4435 33.1618 70.8096 32.906 72.0339 32.3928L70.9293 28.3979C70.8125 27.9753 70.3973 27.7099 69.9654 27.7828ZM87.5787 9.74341C87.0858 9.74341 86.6571 10.0812 86.5412 10.5607L82.298 28.1193L78.4269 10.5814C78.3189 10.0921 77.8855 9.7434 77.3847 9.7434H71.0687L77.5248 30.9223C77.7989 31.8213 78.6277 32.4354 79.5668 32.4354H80.2914C78.9094 35.7656 76.8261 36.6726 72.9904 37.1796L73.566 40.9399C73.6508 41.4936 74.1508 41.9004 74.7076 41.8449C80.69 41.2458 84.6471 38.386 86.4827 32.4784L93.6982 9.7434L87.5787 9.74341Z" fill="#00AEEF"/>
</svg>
